AmstelvarA2-Italic_wght400.ufo
<glyph name="acutecomb" format="2">
  <unicode hex="0301"/>
  <anchor x="194.0" y="1000" name="_top"/>
  <anchor x="296.0" y="1524.0" name="top"/>
  <outline>
    <contour>
      <point x="67" y="1219" type="line"/>
      <point x="304" y="1451" type="line" smooth="yes"/>
      <point x="346" y="1493"/>
      <point x="415" y="1535"/>
      <point x="455" y="1535" type="qcurve" smooth="yes"/>
      <point x="495" y="1535"/>
      <point x="541" y="1482"/>
      <point x="541" y="1448" type="qcurve" smooth="yes"/>
      <point x="541" y="1408"/>
      <point x="471" y="1347"/>
      <point x="421" y="1318" type="qcurve" smooth="yes"/>
      <point x="123" y="1148" type="line"/>
    </contour>
  </outline>
</glyph>
<glyph name="dotaccentcomb" format="2">
  <unicode hex="0307"/>
  <anchor x="194.0" y="1000" name="_top"/>
  <anchor x="267.0" y="1372.0" name="top"/>
  <outline>
    <contour>
      <point x="125" y="1269" type="qcurve" smooth="yes"/>
      <point x="125" y="1326"/>
      <point x="187" y="1387"/>
      <point x="246" y="1387" type="qcurve" smooth="yes"/>
      <point x="301" y="1387"/>
      <point x="367" y="1322"/>
      <point x="367" y="1269" type="qcurve" smooth="yes"/>
      <point x="367" y="1212"/>
      <point x="305" y="1151"/>
      <point x="246" y="1151" type="qcurve" smooth="yes"/>
      <point x="191" y="1151"/>
      <point x="125" y="1216"/>
    </contour>
  </outline>
</glyph>
<glyph name="cedillacomb" format="2">
  <unicode hex="0327"/>
  <anchor x="0.0" y="0" name="_bottom"/>
  <anchor x="-105.0" y="-541.0" name="bottom"/>
  <outline>
    <contour>
      <point x="49" y="-4" type="line"/>
      <point x="-45" y="-139" type="line"/>
      <point x="-28" y="-135"/>
      <point x="22" y="-126"/>
      <point x="52" y="-126" type="qcurve" smooth="yes"/>
      <point x="132" y="-126"/>
      <point x="225" y="-234"/>
      <point x="206" y="-325" type="qcurve" smooth="yes"/>
      <point x="187" y="-416"/>
      <point x="32" y="-536"/>
      <point x="-78" y="-536" type="qcurve" smooth="yes"/>
      <point x="-158" y="-536"/>
      <point x="-308" y="-490"/>
      <point x="-360" y="-450" type="qcurve"/>
      <point x="-295" y="-341" type="line"/>
      <point x="-268" y="-364"/>
      <point x="-154" y="-412"/>
      <point x="-96" y="-412" type="qcurve" smooth="yes"/>
      <point x="-38" y="-412"/>
      <point x="36" y="-366"/>
      <point x="46" y="-316" type="qcurve" smooth="yes"/>
      <point x="56" y="-266"/>
      <point x="6" y="-226"/>
      <point x="-46" y="-226" type="qcurve" smooth="yes"/>
      <point x="-77" y="-226"/>
      <point x="-128" y="-234"/>
      <point x="-146" y="-240" type="qcurve"/>
      <point x="-198" y="-160" type="line"/>
      <point x="-44" y="51" type="line"/>
    </contour>
  </outline>
</glyph>
<glyph name="ogonekcomb" format="2">
  <unicode hex="0328"/>
  <anchor x="0.0" y="0" name="_ogonek"/>
  <anchor x="-90.0" y="-463.0" name="bottom"/>
  <outline>
    <contour>
      <point x="-199.982905982906" y="-240" type="qcurve" smooth="yes"/>
      <point x="-199.982905982906" y="-286"/>
      <point x="-143.982905982906" y="-327"/>
      <point x="-92.982905982906" y="-327" type="qcurve" smooth="yes"/>
      <point x="-40.982905982906004" y="-327"/>
      <point x="82.017094017094" y="-289"/>
      <point x="134.017094017094" y="-254" type="qcurve"/>
      <point x="169.017094017094" y="-347" type="line"/>
      <point x="121.017094017094" y="-385"/>
      <point x="-27.982905982906004" y="-444"/>
      <point x="-127.982905982906" y="-444" type="qcurve" smooth="yes"/>
      <point x="-227.982905982906" y="-444"/>
      <point x="-342.982905982906" y="-351"/>
      <point x="-341.982905982906" y="-263" type="qcurve" smooth="yes"/>
      <point x="-340.982905982906" y="-176"/>
      <point x="-215.982905982906" y="-48"/>
      <point x="-110.982905982906" y="11" type="qcurve" smooth="yes"/>
      <point x="-39.982905982906004" y="51" type="line"/>
      <point x="22.017094017093996" y="8" type="line"/>
      <point x="-30.982905982906004" y="-32" type="line" smooth="yes"/>
      <point x="-118.982905982906" y="-98"/>
      <point x="-199.982905982906" y="-175"/>
    </contour>
  </outline>
</glyph>
<glyph name="brevebelowcomb" format="2">
  <anchor x="0.0" y="0" name="_bottom"/>
  <anchor x="-90.0" y="-463" name="bottom"/>
  <outline>
    <contour>
      <point x="251" y="-72" type="qcurve"/>
      <point x="328" y="-125" type="line"/>
      <point x="286" y="-223"/>
      <point x="56" y="-392"/>
      <point x="-74" y="-392" type="qcurve" smooth="yes"/>
      <point x="-204" y="-392"/>
      <point x="-378" y="-238"/>
      <point x="-381" y="-128" type="qcurve"/>
      <point x="-297" y="-71" type="line"/>
      <point x="-278" y="-133"/>
      <point x="-154" y="-236"/>
      <point x="-58" y="-236" type="qcurve" smooth="yes"/>
      <point x="44" y="-236"/>
      <point x="212" y="-125"/>
    </contour>
  </outline>
</glyph>
<glyph name="brevegravecomb" format="2">
  <anchor x="194.0" y="1000" name="_top"/>
  <anchor x="299.0" y="1539.0" name="top"/>
  <outline>
    <contour>
      <point x="544" y="1454" type="qcurve"/>
      <point x="617" y="1401" type="line"/>
      <point x="577" y="1303"/>
      <point x="359" y="1134"/>
      <point x="235" y="1134" type="qcurve" smooth="yes"/>
      <point x="112" y="1134"/>
      <point x="-53" y="1288"/>
      <point x="-56" y="1398" type="qcurve"/>
      <point x="24" y="1455" type="line"/>
      <point x="42" y="1393"/>
      <point x="159" y="1290"/>
      <point x="251" y="1290" type="qcurve" smooth="yes"/>
      <point x="347" y="1290"/>
      <point x="507" y="1401"/>
    </contour>
    <contour>
      <point x="84" y="1739" type="line" smooth="yes"/>
      <point x="52" y="1765"/>
      <point x="22" y="1815"/>
      <point x="22" y="1849" type="qcurve" smooth="yes"/>
      <point x="22" y="1885"/>
      <point x="77" y="1939"/>
      <point x="123" y="1939" type="qcurve" smooth="yes"/>
      <point x="161" y="1939"/>
      <point x="215" y="1894"/>
      <point x="242" y="1853" type="qcurve" smooth="yes"/>
      <point x="411" y="1594" type="line"/>
      <point x="342" y="1533" type="line"/>
    </contour>
  </outline>
</glyph>
<glyph name="breveinvertedcomb" format="2">
  <anchor x="194.0" y="1000" name="_top"/>
  <anchor x="286.0" y="1470.0" name="top"/>
  <outline>
    <contour>
      <point x="-34" y="1153" type="qcurve"/>
      <point x="-107" y="1206" type="line"/>
      <point x="-67" y="1304"/>
      <point x="151" y="1473"/>
      <point x="275" y="1473" type="qcurve" smooth="yes"/>
      <point x="398" y="1473"/>
      <point x="563" y="1319"/>
      <point x="566" y="1209" type="qcurve"/>
      <point x="486" y="1152" type="line"/>
      <point x="468" y="1214"/>
      <point x="351" y="1317"/>
      <point x="259" y="1317" type="qcurve" smooth="yes"/>
      <point x="163" y="1317"/>
      <point x="3" y="1206"/>
    </contour>
  </outline>
</glyph>
<glyph name="brevetildecomb.case" format="2">
  <anchor x="291.0" y="1500" name="_top"/>
  <outline>
    <contour>
      <point x="644" y="1969" type="qcurve"/>
      <point x="735" y="1909" type="line"/>
      <point x="688" y="1798"/>
      <point x="483" y="1642"/>
      <point x="333" y="1642" type="qcurve" smooth="yes"/>
      <point x="203" y="1642"/>
      <point x="19" y="1795"/>
      <point x="-3" y="1902" type="qcurve"/>
      <point x="110" y="1963" type="line"/>
      <point x="129" y="1901"/>
      <point x="253" y="1798"/>
      <point x="349" y="1798" type="qcurve" smooth="yes"/>
      <point x="441" y="1798"/>
      <point x="591" y="1893"/>
    </contour>
    <contour>
      <point x="44" y="2151" type="line"/>
      <point x="88" y="2214"/>
      <point x="237" y="2319"/>
      <point x="303" y="2319" type="qcurve" smooth="yes"/>
      <point x="342" y="2319"/>
      <point x="406" y="2296"/>
      <point x="437" y="2270" type="qcurve" smooth="yes"/>
      <point x="459" y="2253"/>
      <point x="533" y="2201"/>
      <point x="572" y="2201" type="qcurve" smooth="yes"/>
      <point x="611" y="2201"/>
      <point x="689" y="2255"/>
      <point x="719" y="2292" type="qcurve"/>
      <point x="786" y="2207" type="line"/>
      <point x="735" y="2131"/>
      <point x="601" y="2049"/>
      <point x="547" y="2049" type="qcurve" smooth="yes"/>
      <point x="501" y="2049"/>
      <point x="419" y="2089"/>
      <point x="396" y="2109" type="qcurve" smooth="yes"/>
      <point x="369" y="2132"/>
      <point x="305" y="2167"/>
      <point x="277" y="2167" type="qcurve" smooth="yes"/>
      <point x="231" y="2167"/>
      <point x="136" y="2098"/>
      <point x="113" y="2070" type="qcurve"/>
    </contour>
  </outline>
</glyph>
<glyph name="caroncomb.case" format="2">
  <anchor x="292.0" y="1500" name="_top"/>
  <anchor x="391.0" y="2011" name="top"/>
  <outline>
    <contour>
      <point x="327" y="1616" type="qcurve" smooth="yes"/>
      <point x="293" y="1616"/>
      <point x="258" y="1649"/>
      <point x="233" y="1689" type="qcurve" smooth="yes"/>
      <point x="81" y="1932" type="line"/>
      <point x="162" y="2005" type="line"/>
      <point x="352" y="1790" type="line"/>
      <point x="632" y="2005" type="line"/>
      <point x="707" y="1932" type="line"/>
      <point x="453" y="1689" type="line" smooth="yes"/>
      <point x="401" y="1640"/>
      <point x="361" y="1616"/>
    </contour>
  </outline>
</glyph>
<glyph name="circumflexacutecomb.case" format="2">
  <anchor x="291.0" y="1500" name="_top"/>
  <outline>
    <contour>
      <point x="374" y="1954" type="qcurve" smooth="yes"/>
      <point x="408" y="1954"/>
      <point x="440" y="1933"/>
      <point x="472" y="1899" type="qcurve" smooth="yes"/>
      <point x="649" y="1710" type="line"/>
      <point x="574" y="1641" type="line"/>
      <point x="339" y="1780" type="line"/>
      <point x="53" y="1643" type="line"/>
      <point x="-10" y="1716" type="line"/>
      <point x="252" y="1899" type="line" smooth="yes"/>
      <point x="311" y="1940"/>
      <point x="340" y="1954"/>
    </contour>
    <contour>
      <point x="931" y="2199" type="qcurve" smooth="yes"/>
      <point x="931" y="2169"/>
      <point x="893" y="2117"/>
      <point x="867" y="2095" type="qcurve" smooth="yes"/>
      <point x="629" y="1887" type="line"/>
      <point x="554" y="1946" type="line"/>
      <point x="697" y="2160" type="line" smooth="yes"/>
      <point x="731" y="2211"/>
      <point x="799" y="2283"/>
      <point x="849" y="2283" type="qcurve" smooth="yes"/>
      <point x="878" y="2283"/>
      <point x="931" y="2239"/>
    </contour>
  </outline>
</glyph>
<glyph name="circumflexacutecomb" format="2">
  <anchor x="194.0" y="1000" name="_top"/>
  <anchor x="299.0" y="1539.0" name="top"/>
  <outline>
    <contour>
      <point x="337" y="1529" type="qcurve" smooth="yes"/>
      <point x="371" y="1529"/>
      <point x="408" y="1497"/>
      <point x="432" y="1456" type="qcurve" smooth="yes"/>
      <point x="577" y="1206" type="line"/>
      <point x="496" y="1140" type="line"/>
      <point x="306" y="1355" type="line"/>
      <point x="26" y="1140" type="line"/>
      <point x="-36" y="1207" type="line"/>
      <point x="212" y="1456" type="line" smooth="yes"/>
      <point x="262" y="1506"/>
      <point x="303" y="1529"/>
    </contour>
    <contour>
      <point x="505" y="1497" type="line"/>
      <point x="742" y="1729" type="line" smooth="yes"/>
      <point x="784" y="1771"/>
      <point x="853" y="1813"/>
      <point x="893" y="1813" type="qcurve" smooth="yes"/>
      <point x="933" y="1813"/>
      <point x="979" y="1760"/>
      <point x="979" y="1726" type="qcurve" smooth="yes"/>
      <point x="979" y="1686"/>
      <point x="909" y="1625"/>
      <point x="859" y="1596" type="qcurve" smooth="yes"/>
      <point x="561" y="1426" type="line"/>
    </contour>
  </outline>
</glyph>
<glyph name="circumflexgravecomb" format="2">
  <anchor x="194.0" y="1000" name="_top"/>
  <anchor x="299.0" y="1539.0" name="top"/>
  <outline>
    <contour>
      <point x="337" y="1539" type="qcurve" smooth="yes"/>
      <point x="371" y="1539"/>
      <point x="408" y="1507"/>
      <point x="432" y="1466" type="qcurve" smooth="yes"/>
      <point x="577" y="1216" type="line"/>
      <point x="496" y="1150" type="line"/>
      <point x="306" y="1365" type="line"/>
      <point x="26" y="1150" type="line"/>
      <point x="-36" y="1217" type="line"/>
      <point x="212" y="1466" type="line" smooth="yes"/>
      <point x="262" y="1516"/>
      <point x="303" y="1539"/>
    </contour>
    <contour>
      <point x="-214" y="1648" type="line" smooth="yes"/>
      <point x="-246" y="1674"/>
      <point x="-276" y="1724"/>
      <point x="-276" y="1758" type="qcurve" smooth="yes"/>
      <point x="-276" y="1794"/>
      <point x="-221" y="1848"/>
      <point x="-175" y="1848" type="qcurve" smooth="yes"/>
      <point x="-137" y="1848"/>
      <point x="-83" y="1803"/>
      <point x="-56" y="1762" type="qcurve" smooth="yes"/>
      <point x="113" y="1503" type="line"/>
      <point x="44" y="1442" type="line"/>
    </contour>
  </outline>
</glyph>
<glyph name="circumflexhookabovecomb" format="2">
  <anchor x="194.0" y="1000" name="_top"/>
  <anchor x="299.0" y="1539.0" name="top"/>
  <outline>
    <contour>
      <point x="337" y="1539" type="qcurve" smooth="yes"/>
      <point x="371" y="1539"/>
      <point x="408" y="1507"/>
      <point x="432" y="1466" type="qcurve" smooth="yes"/>
      <point x="577" y="1216" type="line"/>
      <point x="496" y="1150" type="line"/>
      <point x="306" y="1365" type="line"/>
      <point x="26" y="1150" type="line"/>
      <point x="-36" y="1217" type="line"/>
      <point x="212" y="1466" type="line" smooth="yes"/>
      <point x="262" y="1516"/>
      <point x="303" y="1539"/>
    </contour>
    <contour>
      <point x="611" y="1522" type="line"/>
      <point x="681" y="1596" type="line"/>
      <point x="694" y="1590"/>
      <point x="737" y="1583"/>
      <point x="755" y="1583" type="qcurve" smooth="yes"/>
      <point x="800" y="1583"/>
      <point x="848" y="1625"/>
      <point x="851" y="1667" type="qcurve" smooth="yes"/>
      <point x="854" y="1707"/>
      <point x="798" y="1756"/>
      <point x="750" y="1756" type="qcurve" smooth="yes"/>
      <point x="694" y="1756"/>
      <point x="600" y="1734"/>
      <point x="565" y="1718" type="qcurve"/>
      <point x="534" y="1818" type="line"/>
      <point x="591" y="1843"/>
      <point x="707" y="1870"/>
      <point x="775" y="1870" type="qcurve" smooth="yes"/>
      <point x="879" y="1870"/>
      <point x="1000" y="1765"/>
      <point x="992" y="1668" type="qcurve" smooth="yes"/>
      <point x="985" y="1583"/>
      <point x="869" y="1475"/>
      <point x="803" y="1475" type="qcurve" smooth="yes"/>
      <point x="777" y="1475"/>
      <point x="732" y="1481"/>
      <point x="713" y="1487" type="qcurve"/>
      <point x="703" y="1414" type="line"/>
      <point x="596" y="1414" type="line"/>
    </contour>
  </outline>
</glyph>
<glyph name="dblgravecomb.case" format="2">
  <anchor x="292.0" y="1500" name="_top"/>
  <anchor x="388.0" y="1994" name="top"/>
  <outline>
    <contour>
      <point x="-86" y="1908" type="qcurve" smooth="yes"/>
      <point x="-86" y="1944"/>
      <point x="-32" y="1994"/>
      <point x="4" y="1994" type="qcurve" smooth="yes"/>
      <point x="40" y="1994"/>
      <point x="101" y="1935"/>
      <point x="133" y="1895" type="qcurve" smooth="yes"/>
      <point x="315" y="1670" type="line"/>
      <point x="238" y="1592" type="line"/>
      <point x="3" y="1788" type="line" smooth="yes"/>
      <point x="-36" y="1820"/>
      <point x="-86" y="1872"/>
    </contour>
    <contour>
      <point x="304" y="1908" type="qcurve" smooth="yes"/>
      <point x="304" y="1944"/>
      <point x="358" y="1994"/>
      <point x="394" y="1994" type="qcurve" smooth="yes"/>
      <point x="430" y="1994"/>
      <point x="491" y="1935"/>
      <point x="523" y="1895" type="qcurve" smooth="yes"/>
      <point x="705" y="1670" type="line"/>
      <point x="628" y="1592" type="line"/>
      <point x="393" y="1788" type="line" smooth="yes"/>
      <point x="354" y="1820"/>
      <point x="304" y="1872"/>
    </contour>
  </outline>
</glyph>
<glyph name="dieresiscombstack.case" format="2">
  <anchor x="0.0" y="1500" name="_top"/>
  <anchor x="0.0" y="1901" name="top"/>
  <outline>
    <contour>
      <point x="-31" y="1748" type="qcurve" smooth="yes"/>
      <point x="-31" y="1799"/>
      <point x="36" y="1865"/>
      <point x="87" y="1865" type="qcurve" smooth="yes"/>
      <point x="139" y="1865"/>
      <point x="206" y="1799"/>
      <point x="206" y="1748" type="qcurve" smooth="yes"/>
      <point x="206" y="1698"/>
      <point x="139" y="1633"/>
      <point x="87" y="1633" type="qcurve" smooth="yes"/>
      <point x="36" y="1633"/>
      <point x="-31" y="1698"/>
    </contour>
    <contour>
      <point x="429" y="1748" type="qcurve" smooth="yes"/>
      <point x="429" y="1799"/>
      <point x="496" y="1865"/>
      <point x="547" y="1865" type="qcurve" smooth="yes"/>
      <point x="599" y="1865"/>
      <point x="666" y="1799"/>
      <point x="666" y="1748" type="qcurve" smooth="yes"/>
      <point x="666" y="1698"/>
      <point x="599" y="1633"/>
      <point x="547" y="1633" type="qcurve" smooth="yes"/>
      <point x="496" y="1633"/>
      <point x="429" y="1698"/>
    </contour>
  </outline>
</glyph>
<glyph name="dotaccentmacroncomb" format="2">
  <anchor x="194.0" y="1000" name="_top"/>
  <anchor x="299.0" y="1539.0" name="top"/>
  <outline>
    <contour>
      <point x="124" y="1260" type="qcurve" smooth="yes"/>
      <point x="124" y="1317"/>
      <point x="186" y="1378"/>
      <point x="245" y="1378" type="qcurve" smooth="yes"/>
      <point x="300" y="1378"/>
      <point x="366" y="1313"/>
      <point x="366" y="1260" type="qcurve" smooth="yes"/>
      <point x="366" y="1203"/>
      <point x="304" y="1142"/>
      <point x="245" y="1142" type="qcurve" smooth="yes"/>
      <point x="190" y="1142"/>
      <point x="124" y="1207"/>
    </contour>
    <contour>
      <point x="16" y="1536" type="line"/>
      <point x="46" y="1683" type="line"/>
      <point x="638" y="1683" type="line"/>
      <point x="608" y="1536" type="line"/>
    </contour>
  </outline>
</glyph>
<glyph name="horncomb" format="2">
  <anchor x="194" y="1000" name="_topright"/>
  <anchor x="244.0" y="1256" name="topright"/>
  <outline>
    <contour>
      <point x="194" y="1000" type="line"/>
      <point x="207" y="1000"/>
      <point x="237" y="1000"/>
      <point x="270" y="1000" type="qcurve" smooth="yes"/>
      <point x="336" y="1000"/>
      <point x="400" y="1033"/>
      <point x="410" y="1085" type="qcurve" smooth="yes"/>
      <point x="417" y="1120"/>
      <point x="422" y="1208"/>
      <point x="421" y="1256" type="qcurve"/>
      <point x="529" y="1256" type="line"/>
      <point x="543" y="1206"/>
      <point x="551" y="1106"/>
      <point x="543" y="1063" type="qcurve" smooth="yes"/>
      <point x="525" y="973"/>
      <point x="397" y="874"/>
      <point x="289" y="874" type="qcurve" smooth="yes"/>
      <point x="261" y="874"/>
      <point x="202" y="881"/>
      <point x="173" y="889" type="qcurve"/>
    </contour>
  </outline>
</glyph>
<glyph name="hungarumlautcomb.case" format="2">
  <anchor x="292.0" y="1500" name="_top"/>
  <anchor x="388.0" y="1994" name="top"/>
  <outline>
    <contour>
      <point x="425" y="1917" type="qcurve" smooth="yes"/>
      <point x="425" y="1881"/>
      <point x="358" y="1820"/>
      <point x="313" y="1789" type="qcurve" smooth="yes"/>
      <point x="31" y="1593" type="line"/>
      <point x="-35" y="1677" type="line"/>
      <point x="203" y="1911" type="line" smooth="yes"/>
      <point x="243" y="1951"/>
      <point x="305" y="1995"/>
      <point x="341" y="1995" type="qcurve" smooth="yes"/>
      <point x="377" y="1995"/>
      <point x="425" y="1953"/>
    </contour>
    <contour>
      <point x="815" y="1917" type="qcurve" smooth="yes"/>
      <point x="815" y="1881"/>
      <point x="748" y="1820"/>
      <point x="703" y="1789" type="qcurve" smooth="yes"/>
      <point x="421" y="1593" type="line"/>
      <point x="355" y="1677" type="line"/>
      <point x="593" y="1911" type="line" smooth="yes"/>
      <point x="633" y="1951"/>
      <point x="695" y="1995"/>
      <point x="731" y="1995" type="qcurve" smooth="yes"/>
      <point x="767" y="1995"/>
      <point x="815" y="1953"/>
    </contour>
  </outline>
</glyph>
<glyph name="macronbelowcomb.case" format="2">
  <anchor x="0.0" y="0" name="_bottom"/>
  <anchor x="0.0" y="-343" name="bottom"/>
  <outline>
    <contour>
      <point x="-379" y="-353" type="line"/>
      <point x="-350" y="-198" type="line"/>
      <point x="242" y="-198" type="line"/>
      <point x="213" y="-353" type="line"/>
    </contour>
  </outline>
</glyph>
<glyph name="ogonekcomb.case" format="2">
  <anchor x="43.0" y="0" name="_ogonek"/>
  <anchor x="-8.0" y="-497" name="bottom"/>
  <outline>
    <contour>
      <point x="-202" y="-244" type="qcurve" smooth="yes"/>
      <point x="-212" y="-292"/>
      <point x="-163" y="-347"/>
      <point x="-112" y="-347" type="qcurve" smooth="yes"/>
      <point x="-60" y="-347"/>
      <point x="77" y="-301"/>
      <point x="149" y="-254" type="qcurve"/>
      <point x="184" y="-357" type="line"/>
      <point x="118" y="-418"/>
      <point x="-60" y="-497"/>
      <point x="-160" y="-497" type="qcurve" smooth="yes"/>
      <point x="-260" y="-497"/>
      <point x="-377" y="-389"/>
      <point x="-377" y="-306" type="qcurve" smooth="yes"/>
      <point x="-377" y="-223"/>
      <point x="-225" y="-45"/>
      <point x="-142" y="8" type="qcurve" smooth="yes"/>
      <point x="-75" y="51" type="line"/>
      <point x="19" y="0" type="line"/>
      <point x="-33" y="-42" type="line" smooth="yes"/>
      <point x="-110" y="-104"/>
      <point x="-193" y="-199"/>
    </contour>
  </outline>
</glyph>
